<?xml version="1.0" standalone="no"?>
<!DOCTYPE svg PUBLIC "-//W3C//DTD SVG 20010904//EN"
 "http://www.w3.org/TR/2001/REC-SVG-20010904/DTD/svg10.dtd">
<svg version="1.0" xmlns="http://www.w3.org/2000/svg"
 width="671.000000pt" height="673.000000pt" viewBox="0 0 671.000000 673.000000"
 preserveAspectRatio="xMidYMid meet">

<g transform="translate(0.000000,673.000000) scale(0.100000,-0.100000)"
fill="#000000" stroke="none">
<path d="M3030 6689 c-747 -60 -1486 -401 -2026 -936 -250 -248 -434 -498
-599 -816 -371 -715 -473 -1595 -270 -2344 42 -155 159 -475 184 -505 3 -4
112 147 240 335 129 188 342 498 473 689 131 190 238 350 238 356 0 5 -60 92
-133 193 -73 101 -233 322 -356 492 l-223 307 99 155 c54 85 101 153 105 152
4 -1 98 -126 209 -277 111 -151 239 -324 284 -385 44 -60 152 -207 238 -325
86 -118 172 -235 191 -260 l35 -45 -92 -135 c-391 -572 -855 -1247 -1080
-1571 l-39 -56 67 -107 c167 -267 410 -551 640 -750 546 -474 1193 -743 1933
-803 175 -15 230 -15 400 -5 429 27 753 100 1117 253 441 186 876 507 1205
889 204 238 327 424 460 695 179 364 295 758 335 1133 17 160 19 488 4 652
-30 332 -119 698 -241 992 l-41 99 -27 -63 c-29 -68 -522 -1181 -627 -1418
-109 -245 -259 -582 -380 -857 l-116 -263 -193 0 -193 0 33 78 c19 42 53 120
76 172 23 52 82 187 130 300 49 113 114 264 145 335 89 204 532 1205 698 1575
82 184 170 381 194 436 l46 101 -43 64 c-299 444 -731 830 -1213 1084 -569
299 -1240 435 -1887 384z m468 -1927 c-1 -5 -34 -93 -72 -195 l-69 -187 -503
0 -504 0 0 -375 0 -375 350 0 349 0 -36 -97 c-19 -54 -49 -140 -67 -190 l-31
-93 -282 0 -283 0 0 -545 0 -545 -205 0 -205 0 0 1305 0 1305 781 0 c429 0
779 -4 777 -8z m802 -267 c60 -148 219 -544 354 -880 l246 -610 -100 -232
c-55 -128 -100 -236 -100 -242 0 -5 -4 -12 -9 -15 -5 -3 -35 55 -67 129 l-57
135 -562 0 -561 0 -111 -307 -111 -308 -201 -3 c-126 -1 -201 1 -201 7 0 6 48
140 106 298 127 345 826 2254 839 2291 4 10 52 12 216 10 l211 -3 108 -270z"/>
<path d="M3976 4280 c-3 -8 -95 -261 -204 -562 l-199 -548 420 0 c334 0 418 3
410 13 -5 6 -17 32 -26 57 -9 25 -91 243 -183 485 -92 242 -177 469 -190 505
-13 38 -25 59 -28 50z"/>
</g>
</svg>
